<?xml version="1.0" standalone="no"?><!DOCTYPE svg PUBLIC "-//W3C//DTD SVG 1.1//EN" "http://www.w3.org/Graphics/SVG/1.1/DTD/svg11.dtd"><svg t="1551150571231" class="icon" style="" viewBox="0 0 1024 1024" version="1.1" xmlns="http://www.w3.org/2000/svg" p-id="1335" xmlns:xlink="http://www.w3.org/1999/xlink" width="200" height="200"><defs><style type="text/css"></style></defs><path d="M438.272 475.136v40.96c0 8.192-6.144 14.336-12.288 14.336H212.992c-8.192 0-14.336-6.144-14.336-14.336v-40.96c0-28.672 22.528-53.248 51.2-55.296 6.144 0 10.24-4.096 12.288-8.192 2.048-4.096 0-10.24-4.096-14.336-20.48-18.432-30.72-45.056-30.72-71.68 0-53.248 40.96-96.256 92.16-96.256s92.16 43.008 92.16 96.256c0 28.672-12.288 53.248-32.768 71.68-4.096 4.096-6.144 8.192-4.096 14.336s6.144 8.192 12.288 8.192c28.672 4.096 51.2 26.624 51.2 55.296z" fill="#60C0FF" p-id="1336"></path><path d="M83.968 114.688v512h464.896c28.672-71.68 98.304-122.88 180.224-122.88 32.768 0 65.536 8.192 92.16 22.528V114.688h-737.28z m380.928 403.456c0 22.528-18.432 40.96-38.912 40.96H212.992c-22.528 0-40.96-18.432-40.96-40.96v-40.96c0-34.816 20.48-63.488 51.2-75.776-16.384-20.48-24.576-47.104-24.576-73.728 0-67.584 53.248-122.88 120.832-122.88 65.536 0 118.784 55.296 118.784 122.88 0 26.624-8.192 53.248-24.576 73.728 30.72 12.288 51.2 40.96 51.2 75.776v40.96z" fill="#60C0FF" p-id="1337"></path><path d="M841.728 73.728h-778.24c-10.24 0-20.48 8.192-20.48 20.48v552.96c0 10.24 10.24 20.48 20.48 20.48h475.136c2.048-14.336 6.144-28.672 10.24-40.96H83.968v-512h737.28v411.648c14.336 10.24 28.672 18.432 40.96 30.72V94.208c0-12.288-10.24-20.48-20.48-20.48z" fill="#1C2754" p-id="1338"></path><path d="M438.272 475.136v40.96c0 8.192-6.144 14.336-12.288 14.336H212.992c-8.192 0-14.336-6.144-14.336-14.336v-40.96c0-28.672 22.528-53.248 51.2-55.296 6.144 0 10.24-4.096 12.288-8.192 2.048-4.096 0-10.24-4.096-14.336-20.48-18.432-30.72-45.056-30.72-71.68 0-53.248 40.96-96.256 92.16-96.256s92.16 43.008 92.16 96.256c0 28.672-12.288 53.248-32.768 71.68-4.096 4.096-6.144 8.192-4.096 14.336s6.144 8.192 12.288 8.192c28.672 4.096 51.2 26.624 51.2 55.296z" fill="#F85722" p-id="1339"></path><path d="M413.696 399.36c16.384-20.48 24.576-47.104 24.576-73.728 0-67.584-53.248-122.88-118.784-122.88s-120.832 55.296-120.832 122.88c0 26.624 8.192 53.248 24.576 73.728-30.72 12.288-51.2 40.96-51.2 75.776v40.96c0 22.528 18.432 40.96 40.96 40.96h212.992c22.528 0 38.912-18.432 38.912-40.96v-40.96c0-32.768-20.48-63.488-51.2-75.776z m24.576 118.784c0 8.192-6.144 14.336-12.288 14.336H212.992c-8.192 0-14.336-6.144-14.336-14.336v-40.96c0-28.672 22.528-53.248 51.2-55.296 6.144 0 10.24-4.096 12.288-8.192 2.048-4.096 0-10.24-4.096-14.336-20.48-18.432-30.72-45.056-30.72-71.68 0-53.248 40.96-96.256 92.16-96.256s92.16 43.008 92.16 96.256c0 28.672-12.288 53.248-32.768 71.68-4.096 4.096-6.144 8.192-4.096 14.336s6.144 8.192 12.288 8.192c28.672 2.048 51.2 26.624 51.2 55.296v40.96z" fill="#FFFFFF" p-id="1340"></path><path d="M534.528 421.888h204.8c12.288 0 20.48 8.192 20.48 20.48s-8.192 20.48-20.48 20.48h-204.8c-12.288 0-20.48-8.192-20.48-20.48s8.192-20.48 20.48-20.48z" fill="#FFFFFF" p-id="1341"></path><path d="M534.528 299.008h122.88c12.288 0 20.48 8.192 20.48 20.48s-8.192 20.48-20.48 20.48h-122.88c-12.288 0-20.48-8.192-20.48-20.48s8.192-20.48 20.48-20.48z" fill="#FFFFFF" p-id="1342"></path><path d="M841.728 698.368c0 61.44-51.2 112.64-112.64 112.64-10.24 0-20.48-10.24-20.48-20.48 0-12.288 10.24-20.48 20.48-20.48 38.912 0 71.68-32.768 71.68-71.68 0-12.288 10.24-20.48 20.48-20.48s20.48 8.192 20.48 20.48z" fill="#FFFFFF" p-id="1343"></path><path d="M952.32 878.592l-65.536-65.536c22.528-32.768 36.864-71.68 36.864-114.688 0-55.296-24.576-106.496-61.44-141.312-12.288-12.288-26.624-20.48-40.96-30.72-26.624-14.336-59.392-22.528-92.16-22.528-81.92 0-151.552 51.2-180.224 122.88-4.096 12.288-8.192 26.624-10.24 40.96-2.048 10.24-2.048 20.48-2.048 30.72 0 106.496 88.064 194.56 194.56 194.56 43.008 0 81.92-14.336 114.688-36.864l65.536 65.536c6.144 6.144 24.576 16.384 43.008 2.048 14.336-14.336 10.24-32.768-2.048-45.056z m-96.256-94.208c-10.24 16.384-24.576 28.672-40.96 40.96-24.576 16.384-55.296 26.624-86.016 26.624-83.968 0-153.6-69.632-153.6-153.6 0-10.24 0-20.48 2.048-30.72 2.048-14.336 8.192-28.672 14.336-40.96 24.576-49.152 77.824-81.92 135.168-81.92 34.816 0 65.536 12.288 92.16 30.72 16.384 12.288 30.72 28.672 40.96 47.104 12.288 22.528 20.48 49.152 20.48 75.776 2.048 30.72-8.192 61.44-24.576 86.016z" fill="#F85722" p-id="1344"></path><path d="M862.208 620.544c-10.24-18.432-24.576-32.768-40.96-47.104-24.576-18.432-57.344-30.72-92.16-30.72-59.392 0-110.592 32.768-135.168 81.92-6.144 12.288-12.288 26.624-14.336 40.96-2.048 10.24-2.048 20.48-2.048 30.72 0 83.968 69.632 153.6 153.6 153.6 32.768 0 61.44-10.24 86.016-26.624 16.384-10.24 28.672-24.576 40.96-40.96 16.384-24.576 26.624-55.296 26.624-86.016-2.048-26.624-10.24-53.248-22.528-75.776z m-61.44-14.336c10.24 0 20.48 8.192 20.48 20.48 0 10.24-10.24 20.48-20.48 20.48s-20.48-10.24-20.48-20.48c0-12.288 8.192-20.48 20.48-20.48z m-71.68 204.8c-10.24 0-20.48-10.24-20.48-20.48 0-12.288 10.24-20.48 20.48-20.48 38.912 0 71.68-32.768 71.68-71.68 0-12.288 10.24-20.48 20.48-20.48s20.48 8.192 20.48 20.48c0 61.44-51.2 112.64-112.64 112.64z" fill="#FFFFFF" p-id="1345"></path><path d="M841.728 698.368c0 61.44-51.2 112.64-112.64 112.64-10.24 0-20.48-10.24-20.48-20.48 0-12.288 10.24-20.48 20.48-20.48 38.912 0 71.68-32.768 71.68-71.68 0-12.288 10.24-20.48 20.48-20.48s20.48 8.192 20.48 20.48z" fill="#FFAD92" p-id="1346"></path><path d="M800.768 626.688m-20.48 0a20.48 20.48 0 1 0 40.96 0 20.48 20.48 0 1 0-40.96 0Z" fill="#FFAD92" p-id="1347"></path></svg>