<?xml version="1.0" standalone="no"?><!DOCTYPE svg PUBLIC "-//W3C//DTD SVG 1.1//EN" "http://www.w3.org/Graphics/SVG/1.1/DTD/svg11.dtd"><svg t="1552535844711" class="icon" style="" viewBox="0 0 1024 1024" version="1.1" xmlns="http://www.w3.org/2000/svg" p-id="2677" xmlns:xlink="http://www.w3.org/1999/xlink" width="200" height="200"><defs><style type="text/css"></style></defs><path d="M85.333333 861.866667a426.666667 42.666667 0 1 0 853.333334 0 426.666667 42.666667 0 1 0-853.333334 0Z" fill="#DAE9FF" p-id="2678"></path><path d="M629.76 870.4H295.253333C221.866667 870.4 187.733333 836.266667 187.733333 778.24v-358.4c-23.893333-5.12-32.426667-18.773333-32.426666-39.253333v-76.8c0-25.6 11.946667-37.546667 69.973333-37.546667H597.333333v124.586667-124.586667h273.066667c37.546667 0 49.493333 15.36 49.493333 40.96v73.386667c0 25.6-8.533333 39.253333-39.253333 40.96 3.413333 18.773333 0 296.96 0 353.28 0 58.026667-32.426667 95.573333-105.813333 95.573333h-145.066667z" fill="#DAE9FF" p-id="2679"></path><path d="M592.213333 851.626667H257.706667c-73.386667 0-107.52-34.133333-107.52-92.16v-358.4C126.293333 394.24 119.466667 382.293333 119.466667 361.813333v-76.8c0-25.6 11.946667-37.546667 69.973333-37.546666h643.413333c39.253333 0 51.2 15.36 51.2 40.96v73.386666c0 25.6-8.533333 39.253333-39.253333 40.96 3.413333 18.773333 0 296.96 0 353.28 0 58.026667-32.426667 95.573333-105.813333 95.573334h-146.773334z" fill="#3889FF" p-id="2680"></path><path d="M389.12 109.226667c35.84 20.48 97.28 51.2 116.053333 63.146666 25.6 15.36 25.6 42.666667-8.533333 42.666667H375.466667c-32.426667 0-32.426667-34.133333-30.72-59.733333 3.413333-25.6 11.946667-63.146667 44.373333-46.08z m329.386667 46.08c3.413333 25.6 3.413333 59.733333-30.72 59.733333h-121.173334c-32.426667 0-32.426667-27.306667-8.533333-42.666667 18.773333-11.946667 78.506667-42.666667 116.053333-63.146666 30.72-18.773333 40.96 18.773333 44.373334 46.08z" fill="#FFD3D7" p-id="2681"></path><path d="M361.813333 90.453333c-30.72-17.066667-40.96 20.48-44.373333 46.08s-3.413333 59.733333 30.72 59.733334h121.173333c32.426667 0 32.426667-27.306667 8.533334-42.666667-18.773333-10.24-78.506667-42.666667-116.053334-63.146667zM692.906667 136.533333c-3.413333-25.6-11.946667-63.146667-44.373334-46.08-35.84 20.48-97.28 51.2-116.053333 63.146667-25.6 15.36-25.6 42.666667 8.533333 42.666667h121.173334c32.426667 0 32.426667-34.133333 30.72-59.733334z" fill="#FB560A" p-id="2682"></path><path d="M474.453333 402.773333h117.76v447.146667h-117.76z" fill="#DAE9FF" p-id="2683"></path><path d="M440.32 404.48h117.76v447.146667h-117.76z" fill="#FFFFFF" p-id="2684"></path><path d="M151.893333 402.773333h696.32v112.64H151.893333z" fill="#0646DE" p-id="2685"></path></svg>