<?xml version="1.0" standalone="no"?><!DOCTYPE svg PUBLIC "-//W3C//DTD SVG 1.1//EN" "http://www.w3.org/Graphics/SVG/1.1/DTD/svg11.dtd"><svg t="1551230963194" class="icon" style="" viewBox="0 0 1024 1024" version="1.1" xmlns="http://www.w3.org/2000/svg" p-id="2602" xmlns:xlink="http://www.w3.org/1999/xlink" width="200" height="200"><defs><style type="text/css"></style></defs><path d="M153.6 471.04m-20.48 0a20.48 20.48 0 1 0 40.96 0 20.48 20.48 0 1 0-40.96 0Z" fill="#E2F2FF" p-id="2603"></path><path d="M235.52 471.04m-20.48 0a20.48 20.48 0 1 0 40.96 0 20.48 20.48 0 1 0-40.96 0Z" fill="#E2F2FF" p-id="2604"></path><path d="M317.44 471.04m-20.48 0a20.48 20.48 0 1 0 40.96 0 20.48 20.48 0 1 0-40.96 0Z" fill="#E2F2FF" p-id="2605"></path><path d="M522.24 634.88c0 16.384-6.144 32.768-18.432 43.008-10.24 10.24-26.624 18.432-43.008 18.432H223.232c-4.096 0-6.144 0-10.24 2.048-24.576 14.336-45.056 18.432-59.392 16.384 16.384-12.288 24.576-34.816 28.672-63.488v-40.96c0-10.24 4.096-20.48 12.288-28.672 6.144-4.096 16.384-8.192 26.624-8.192h239.616c16.384 0 32.768 6.144 43.008 18.432 12.288 10.24 18.432 26.624 18.432 43.008z" fill="#E2F2FF" p-id="2606"></path><path d="M911.36 389.12h-163.84l-26.624 40.96h188.416c10.24 0 20.48 10.24 20.48 20.48v471.04c0 10.24-10.24 20.48-20.48 20.48h-798.72c-10.24 0-20.48-10.24-20.48-20.48V450.56c0-10.24 10.24-20.48 20.48-20.48h522.24l-26.624-40.96H110.592c-34.816 0-61.44 26.624-61.44 61.44v471.04c0 32.768 26.624 61.44 61.44 61.44h798.72c34.816 0 61.44-28.672 61.44-61.44V450.56c2.048-34.816-24.576-61.44-59.392-61.44z" fill="#1C2754" p-id="2607"></path><path d="M92.16 512v409.6c0 10.24 10.24 20.48 20.48 20.48h798.72c10.24 0 20.48-10.24 20.48-20.48V512h-839.68z m411.648 165.888c-10.24 10.24-26.624 18.432-43.008 18.432H223.232c-4.096 0-6.144 0-10.24 2.048-24.576 14.336-45.056 18.432-59.392 16.384 16.384-12.288 24.576-34.816 28.672-63.488v-40.96c0-10.24 4.096-20.48 12.288-28.672 6.144-4.096 16.384-8.192 26.624-8.192h239.616c16.384 0 32.768 6.144 43.008 18.432 10.24 10.24 18.432 26.624 18.432 43.008s-6.144 32.768-18.432 43.008z" fill="#FFFFFF" p-id="2608"></path><path d="M911.36 430.08l-188.416-2.048-30.72 49.152c-4.096 6.144-10.24 8.192-16.384 8.192s-10.24-2.048-14.336-6.144L630.784 430.08H112.64c-14.336 0-22.528 10.24-22.528 20.48v61.44h841.728V450.56c0-10.24-10.24-20.48-20.48-20.48z m-757.76 61.44c-10.24 0-20.48-10.24-20.48-20.48s10.24-20.48 20.48-20.48 20.48 10.24 20.48 20.48-10.24 20.48-20.48 20.48z m81.92 0c-10.24 0-20.48-10.24-20.48-20.48s10.24-20.48 20.48-20.48 20.48 10.24 20.48 20.48-10.24 20.48-20.48 20.48z m81.92 0c-10.24 0-20.48-10.24-20.48-20.48s10.24-20.48 20.48-20.48 20.48 10.24 20.48 20.48-10.24 20.48-20.48 20.48z" fill="#97D0FF" p-id="2609"></path><path d="M153.6 471.04m-20.48 0a20.48 20.48 0 1 0 40.96 0 20.48 20.48 0 1 0-40.96 0Z" fill="#97D0FF" p-id="2610"></path><path d="M235.52 471.04m-20.48 0a20.48 20.48 0 1 0 40.96 0 20.48 20.48 0 1 0-40.96 0Z" fill="#97D0FF" p-id="2611"></path><path d="M317.44 471.04m-20.48 0a20.48 20.48 0 1 0 40.96 0 20.48 20.48 0 1 0-40.96 0Z" fill="#97D0FF" p-id="2612"></path><path d="M153.6 471.04m-20.48 0a20.48 20.48 0 1 0 40.96 0 20.48 20.48 0 1 0-40.96 0Z" fill="#FF924D" p-id="2613"></path><path d="M235.52 471.04m-20.48 0a20.48 20.48 0 1 0 40.96 0 20.48 20.48 0 1 0-40.96 0Z" fill="#4DAFFF" p-id="2614"></path><path d="M317.44 471.04m-20.48 0a20.48 20.48 0 1 0 40.96 0 20.48 20.48 0 1 0-40.96 0Z" fill="#4DAFFF" p-id="2615"></path><path d="M522.24 634.88c0 16.384-6.144 32.768-18.432 43.008-10.24 10.24-26.624 18.432-43.008 18.432H223.232c-4.096 0-6.144 0-10.24 2.048-24.576 14.336-45.056 18.432-59.392 16.384 16.384-12.288 24.576-34.816 28.672-63.488v-40.96c0-10.24 4.096-20.48 12.288-28.672 6.144-4.096 16.384-8.192 26.624-8.192h239.616c16.384 0 32.768 6.144 43.008 18.432 12.288 10.24 18.432 26.624 18.432 43.008z" fill="#419EFF" p-id="2616"></path><path d="M757.76 141.312c-18.432 20.48-28.672 45.056-32.768 69.632 4.096-28.672 16.384-51.2 32.768-69.632z" fill="#81DB61" p-id="2617"></path><path d="M724.992 210.944c4.096-24.576 14.336-49.152 32.768-69.632-16.384 18.432-28.672 40.96-32.768 69.632z" fill="#16380A" p-id="2618"></path><path d="M882.688 49.152c-65.536-10.24-145.408-16.384-206.848 14.336-67.584 34.816-83.968 110.592-81.92 182.272-16.384 0-90.112-6.144-65.536 30.72l73.728 112.64 26.624 40.96 30.72 47.104c4.096 6.144 10.24 8.192 16.384 8.192s18.432-4.096 20.48-8.192l131.072-200.704c12.288-20.48-14.336-30.72-32.768-30.72H757.76c0-51.2 16.384-90.112 69.632-108.544 24.576-8.192 61.44 0 65.536-32.768 6.144-14.336 14.336-51.2-10.24-55.296z m-24.576 43.008c-75.776 6.144-133.12 67.584-135.168 143.36 0 8.192-6.144 47.104 4.096 53.248 4.096 2.048 20.48 2.048 24.576 2.048h24.576l-67.584 100.352-26.624 40.96-26.624-40.96-67.584-102.4h55.296c-8.192-61.44-12.288-145.408 49.152-182.272 24.576-14.336 55.296-20.48 83.968-22.528 8.192-2.048 83.968-2.048 81.92 8.192z" fill="#16380A" p-id="2619"></path><path d="M864.256 86.016c0 6.144 0 6.144-6.144 8.192-10.24 2.048-40.96 10.24-51.2 14.336-16.384 8.192-32.768 18.432-45.056 32.768-24.576 26.624-36.864 57.344-36.864 94.208V286.72c8.192 0 47.104 2.048 55.296 2.048l-98.304 147.456-28.672-47.104-67.584-102.4h55.296c-8.192-59.392-12.288-139.264 40.96-178.176 49.152-34.816 124.928-28.672 182.272-22.528z" fill="#81DB61" p-id="2620"></path></svg>