<?xml version="1.0" standalone="no"?><!DOCTYPE svg PUBLIC "-//W3C//DTD SVG 1.1//EN" "http://www.w3.org/Graphics/SVG/1.1/DTD/svg11.dtd"><svg t="1550760276692" class="icon" style="" viewBox="0 0 1024 1024" version="1.1" xmlns="http://www.w3.org/2000/svg" p-id="30828" xmlns:xlink="http://www.w3.org/1999/xlink" width="200" height="200"><defs><style type="text/css"></style></defs><path d="M664.234667 662.186667m-149.504 0a149.504 149.504 0 1 0 299.008 0 149.504 149.504 0 1 0-299.008 0Z" fill="#FFE55C" p-id="30829"></path><path d="M584.362667 357.717333H301.738667c-10.922667 0-19.797333-8.874667-19.797334-19.797333s8.874667-19.797333 19.797334-19.797333h282.624c10.922667 0 19.797333 8.874667 19.797333 19.797333s-8.874667 19.797333-19.797333 19.797333zM386.389333 491.52H306.517333c-10.922667 0-19.797333-8.874667-19.797333-19.797333s8.874667-19.797333 19.797333-19.797334h79.189334c10.922667 0 19.797333 8.874667 19.797333 19.797334S397.312 491.52 386.389333 491.52z" fill="#4D4D4D" p-id="30830"></path><path d="M387.072 830.122667H278.528c-62.805333 0-114.005333-51.2-114.005333-114.005334V283.306667c0-62.805333 51.2-114.005333 114.005333-114.005334h324.949333c62.805333 0 114.005333 51.2 114.005334 114.005334v54.613333c0 10.922667-8.874667 19.797333-19.797334 19.797333s-19.797333-8.874667-19.797333-19.797333v-54.613333c0-40.96-33.450667-74.410667-74.410667-74.410667H278.528c-40.96 0-74.410667 33.450667-74.410667 74.410667v432.810666c0 40.96 33.450667 74.410667 74.410667 74.410667h108.544c10.922667 0 19.797333 8.874667 19.797333 19.797333s-8.874667 19.797333-19.797333 19.797334z" fill="#4D4D4D" p-id="30831"></path><path d="M664.234667 882.005333c-122.88 0-222.549333-99.669333-222.549334-222.549333S541.354667 436.906667 664.234667 436.906667s222.549333 99.669333 222.549333 222.549333-99.669333 222.549333-222.549333 222.549333z m0-404.821333c-101.034667 0-182.954667 81.92-182.954667 182.954667s81.92 182.954667 182.954667 182.954666 182.954667-81.92 182.954666-182.954666-81.92-182.954667-182.954666-182.954667z" fill="#4D4D4D" p-id="30832"></path><path d="M639.658667 733.184c-5.461333 0-10.24-2.048-13.653334-5.461333l-43.690666-43.690667c-7.509333-7.509333-7.509333-20.48 0-27.989333 7.509333-7.509333 20.48-7.509333 27.989333 0l30.037333 30.037333 83.968-83.968c7.509333-7.509333 20.48-7.509333 27.989334 0 7.509333 7.509333 7.509333 20.48 0 27.989333l-98.304 98.304c-4.096 2.730667-8.874667 4.778667-14.336 4.778667z" fill="#4D4D4D" p-id="30833"></path></svg>