<?xml version="1.0" standalone="no"?><!DOCTYPE svg PUBLIC "-//W3C//DTD SVG 1.1//EN" "http://www.w3.org/Graphics/SVG/1.1/DTD/svg11.dtd"><svg t="1550804373042" class="icon" style="" viewBox="0 0 1024 1024" version="1.1" xmlns="http://www.w3.org/2000/svg" p-id="13465" xmlns:xlink="http://www.w3.org/1999/xlink" width="200" height="200"><defs><style type="text/css"></style></defs><path d="M497.664 770.048c0 18.432 8.192 51.2-14.336 55.296-18.432 2.048-38.912 0-55.296 0h-94.208c-18.432 0-40.96 2.048-59.392 0-22.528-4.096-16.384-36.864-16.384-55.296s8.192-34.816 24.576-47.104c16.384-10.24 53.248-8.192 28.672-36.864-32.768-36.864-36.864-90.112-6.144-129.024 26.624-32.768 75.776-43.008 112.64-24.576 45.056 24.576 63.488 81.92 40.96 126.976-10.24 18.432-45.056 45.056-8.192 53.248 28.672 10.24 47.104 30.72 47.104 57.344z" fill="#60C0FF" p-id="13466"></path><path d="M765.952 409.6c-12.288 16.384-22.528 34.816-34.816 51.2-8.192 12.288-22.528 45.056-43.008 45.056-18.432 0-30.72-34.816-40.96-47.104-12.288-16.384-20.48-34.816-32.768-51.2H143.36v512h737.28V409.6h-114.688zM526.336 813.056c0 34.816-32.768 40.96-59.392 40.96H284.672c-28.672 0-51.2-12.288-51.2-43.008-2.048-45.056 2.048-94.208 51.2-112.64-57.344-77.824-4.096-196.608 96.256-196.608 98.304 0 153.6 118.784 96.256 196.608 49.152 18.432 49.152 67.584 49.152 114.688z" fill="#60C0FF" p-id="13467"></path><path d="M901.12 368.64h-108.544c14.336-22.528 32.768-45.056 45.056-67.584 20.48-40.96-47.104-32.768-67.584-32.768 0-38.912 4.096-71.68 38.912-94.208 22.528-14.336 47.104-18.432 71.68-20.48s26.624-16.384 26.624-34.816c2.048-16.384 6.144-36.864-12.288-45.056-26.624-12.288-65.536-12.288-94.208-12.288-47.104 0-96.256 6.144-133.12 34.816-53.248 38.912-65.536 106.496-63.488 169.984-20.48 0-86.016-8.192-65.536 32.768 12.288 24.576 30.72 47.104 45.056 67.584H137.216c-10.24 0-22.528-2.048-30.72 6.144-12.288 14.336-4.096 55.296-4.096 71.68v458.752c0 20.48-6.144 55.296 20.48 59.392 18.432 2.048 36.864 0 55.296 0h720.896c18.432-2.048 20.48-14.336 20.48-28.672 2.048-90.112 0-178.176 0-268.288s2.048-178.176 0-268.288c2.048-14.336 0-28.672-18.432-28.672z m-278.528-61.44c18.432 0 24.576-14.336 24.576-30.72 0-18.432-2.048-38.912 0-57.344 2.048-30.72 12.288-61.44 34.816-81.92 49.152-45.056 126.976-36.864 186.368-30.72 6.144 0 12.288 2.048 18.432 2.048-67.584 2.048-141.312 34.816-155.648 108.544-4.096 20.48-4.096 47.104-2.048 67.584 4.096 28.672 32.768 22.528 55.296 22.528-30.72 47.104-63.488 94.208-94.208 143.36-30.72-47.104-63.488-94.208-94.208-143.36h26.624zM880.64 921.6H143.36V409.6h468.992c12.288 16.384 22.528 34.816 34.816 51.2 8.192 12.288 22.528 47.104 43.008 47.104 18.432 0 34.816-34.816 43.008-47.104 12.288-16.384 22.528-34.816 34.816-51.2H880.64v512z" fill="#1C2754" p-id="13468"></path><path d="M497.664 770.048c0 18.432 8.192 51.2-14.336 55.296-18.432 2.048-38.912 0-55.296 0h-94.208c-18.432 0-40.96 2.048-59.392 0-22.528-4.096-16.384-36.864-16.384-55.296s8.192-34.816 24.576-47.104c16.384-10.24 53.248-8.192 28.672-36.864-32.768-36.864-36.864-90.112-6.144-129.024 26.624-32.768 75.776-43.008 112.64-24.576 45.056 24.576 63.488 81.92 40.96 126.976-10.24 18.432-45.056 45.056-8.192 53.248 28.672 10.24 47.104 30.72 47.104 57.344z" fill="#F85722" p-id="13469"></path><path d="M475.136 694.272c57.344-77.824 4.096-196.608-96.256-196.608-98.304 0-153.6 118.784-96.256 196.608-49.152 20.48-55.296 71.68-51.2 116.736 4.096 45.056 45.056 40.96 77.824 40.96h124.928c26.624 0 69.632 8.192 83.968-20.48 10.24-16.384 6.144-40.96 6.144-59.392 0-32.768-18.432-63.488-49.152-77.824z m22.528 118.784c0 18.432-34.816 14.336-47.104 14.336h-178.176c-16.384-4.096-14.336-18.432-14.336-30.72s-2.048-24.576 2.048-34.816c6.144-28.672 26.624-34.816 49.152-43.008 28.672-10.24-4.096-32.768-12.288-47.104-12.288-20.48-16.384-47.104-10.24-69.632 10.24-43.008 51.2-75.776 96.256-73.728 43.008 2.048 77.824 36.864 86.016 77.824 4.096 26.624-2.048 53.248-18.432 75.776-6.144 8.192-24.576 20.48-14.336 32.768 6.144 6.144 22.528 6.144 30.72 10.24 36.864 16.384 30.72 55.296 30.72 88.064z" fill="#FFFFFF" p-id="13470"></path><path d="M593.92 716.8h184.32c16.384 0 40.96-2.048 40.96 20.48 0 24.576-28.672 20.48-45.056 20.48h-155.648c-16.384 0-45.056 4.096-45.056-20.48 0-12.288 8.192-20.48 20.48-20.48z" fill="#FFFFFF" p-id="13471"></path><path d="M593.92 593.92h73.728c18.432 0 69.632-8.192 69.632 20.48 0 30.72-63.488 20.48-81.92 20.48s-81.92 10.24-81.92-20.48c0-12.288 8.192-20.48 20.48-20.48z" fill="#FFFFFF" p-id="13472"></path><path d="M888.832 108.544c-67.584 2.048-143.36 36.864-157.696 110.592-4.096 20.48-2.048 45.056 0 65.536 4.096 28.672 32.768 20.48 55.296 20.48-30.72 47.104-65.536 96.256-96.256 145.408-30.72-47.104-65.536-96.256-96.256-145.408 28.672 0 55.296 4.096 53.248-34.816-2.048-43.008-4.096-92.16 24.576-126.976 47.104-57.344 151.552-45.056 217.088-34.816z" fill="#81DB61" p-id="13473"></path></svg>