<?xml version="1.0" standalone="no"?><!DOCTYPE svg PUBLIC "-//W3C//DTD SVG 1.1//EN" "http://www.w3.org/Graphics/SVG/1.1/DTD/svg11.dtd"><svg t="1551751872371" class="icon" style="" viewBox="0 0 1026 1024" version="1.1" xmlns="http://www.w3.org/2000/svg" p-id="5584" xmlns:xlink="http://www.w3.org/1999/xlink" width="200.390625" height="200"><defs><style type="text/css"></style></defs><path d="M265.637819 102.557781S161.502226-34.711864 21.076956 168.825886c0 0-20.511556 102.557781 45.756549 140.42527L265.637819 102.557781zM732.670176 86.779661S836.80577-50.489985 977.231039 153.047766c0 0 20.511556 102.557781-45.756548 140.425269L732.670176 86.779661z" fill="#FC6884" p-id="5585"></path><path d="M497.576186 916.708783c-198.804314 0-361.318952-162.514638-361.318953-361.318952 0-198.804314 162.514638-361.318952 361.318953-361.318953s361.318952 162.514638 361.318952 361.318953c0 198.804314-162.514638 361.318952-361.318952 361.318952z m0-691.081664C316.127804 225.627119 167.813474 373.941448 167.813474 555.389831S316.127804 885.152542 497.576186 885.152542s329.762712-148.31433 329.762712-329.762711S679.024568 225.627119 497.576186 225.627119zM928.318867 325.029276c-4.733436 0-7.88906-1.577812-11.044684-4.733436L704.26956 107.291217c-6.311248-6.311248-6.311248-15.77812 0-22.089368 39.4453-39.4453 80.468413-56.801233 124.64715-55.223421 37.867488 1.577812 77.312789 20.511556 110.446841 55.223421 33.134052 33.134052 52.067797 71.001541 55.22342 110.446841 3.155624 44.178737-15.77812 86.779661-55.22342 124.64715-3.155624 3.155624-6.311248 4.733436-11.044684 4.733436zM737.403612 96.246533l189.337443 189.337442c25.244992-28.400616 36.289676-58.379045 34.711864-89.935285-1.577812-29.978428-17.355932-61.534669-45.756548-89.935285S857.317326 63.112481 827.338898 61.534669c-29.978428-1.577812-59.956857 9.466872-89.935286 34.711864z" fill="#381FCD" p-id="5586"></path><path d="M928.318867 112.024653c-4.733436 0-7.88906-1.577812-11.044684-4.733436-6.311248-6.311248-6.311248-15.77812 0-22.089368l31.55624-29.978428c6.311248-6.311248 15.77812-6.311248 22.089368 0 6.311248 6.311248 6.311248 15.77812 0 22.089368l-31.55624 29.978428c-3.155624 3.155624-7.88906 4.733436-11.044684 4.733436zM66.833505 326.607088c-4.733436 0-7.88906-1.577812-11.044685-4.733436C16.34352 282.428351-2.590224 241.405239 0.5654 197.226502c1.577812-37.867488 20.511556-77.312789 55.22342-110.446841C88.922873 53.645609 126.790361 34.711864 166.235662 31.55624c44.178737-3.155624 86.779661 15.77812 124.647149 55.223421 6.311248 6.311248 6.311248 15.77812 0 22.089368L77.878189 321.873652c-3.155624 3.155624-6.311248 4.733436-11.044684 4.733436zM174.124722 63.112481h-6.311248c-29.978428 1.577812-61.534669 17.355932-89.935285 45.756548S33.699452 168.825886 32.12164 198.804314c-1.577812 29.978428 9.466872 59.956857 34.711865 89.935285l189.337442-189.337442C230.925955 74.157165 202.525338 63.112481 174.124722 63.112481z" fill="#381FCD" p-id="5587"></path><path d="M66.833505 112.024653c-3.155624 0-7.88906-1.577812-11.044685-4.733436l-31.55624-29.978428c-6.311248-6.311248-6.311248-15.77812 0-22.089368 6.311248-6.311248 15.77812-6.311248 22.089368 0l31.556241 29.978428c6.311248 6.311248 6.311248 15.77812 0 22.089368-3.155624 3.155624-6.311248 4.733436-11.044684 4.733436zM216.725646 1024c-3.155624 0-6.311248-1.577812-9.466872-3.155624-4.733436-3.155624-7.88906-9.466872-6.311248-15.77812l22.089368-129.380586c1.577812-7.88906 9.466872-14.200308 18.933745-12.622496 7.88906 1.577812 14.200308 9.466872 12.622496 18.933744l-15.77812 96.246533 78.890601-47.33436c7.88906-4.733436 17.355932-1.577812 22.089368 4.733436 4.733436 7.88906 1.577812 17.355932-4.733436 22.089368l-108.86903 64.690293c-3.155624 1.577812-6.311248 1.577812-9.466872 1.577812zM778.426725 1024c-3.155624 0-6.311248 0-7.88906-1.577812l-108.869029-64.690293c-7.88906-4.733436-9.466872-14.200308-4.733436-22.089368s14.200308-9.466872 22.089368-4.733436l78.890601 47.33436-15.77812-96.246533c-1.577812-7.88906 4.733436-17.355932 12.622496-18.933744 7.88906-1.577812 17.355932 4.733436 18.933744 12.622496l22.089368 129.380586c1.577812 6.311248-1.577812 12.622496-6.311248 15.77812-4.733436 1.577812-7.88906 3.155624-11.044684 3.155624zM497.576186 290.317411c-9.466872 0-15.77812-6.311248-15.778121-15.77812v-64.690293c0-9.466872 6.311248-15.77812 15.778121-15.77812s15.77812 6.311248 15.77812 15.77812v64.690293c0 9.466872-6.311248 15.77812-15.77812 15.77812zM497.576186 916.708783c-9.466872 0-15.77812-6.311248-15.778121-15.77812V836.24037c0-9.466872 6.311248-15.77812 15.778121-15.77812s15.77812 6.311248 15.77812 15.77812v64.690293c0 9.466872-6.311248 15.77812-15.77812 15.77812zM843.117018 571.167951h-64.690293c-9.466872 0-15.77812-6.311248-15.77812-15.77812s6.311248-15.77812 15.77812-15.778121h64.690293c9.466872 0 15.77812 6.311248 15.77812 15.778121s-6.311248 15.77812-15.77812 15.77812zM216.725646 571.167951H152.035354c-9.466872 0-15.77812-6.311248-15.778121-15.77812s6.311248-15.77812 15.778121-15.778121h64.690292c9.466872 0 15.77812 6.311248 15.778121 15.778121s-6.311248 15.77812-15.778121 15.77812zM696.3805 372.363636c-4.733436 0-7.88906-1.577812-11.044684-4.733436-6.311248-6.311248-6.311248-15.77812 0-22.089368l45.756548-45.756548c6.311248-6.311248 15.77812-6.311248 22.089369 0s6.311248 15.77812 0 22.089368l-45.756549 45.756548c-3.155624 3.155624-6.311248 4.733436-11.044684 4.733436zM253.015323 815.728814c-4.733436 0-7.88906-1.577812-11.044684-4.733436-6.311248-6.311248-6.311248-15.77812 0-22.089369l45.756548-45.756548c6.311248-6.311248 15.77812-6.311248 22.089368 0s6.311248 15.77812 0 22.089368l-45.756548 45.756549c-3.155624 3.155624-6.311248 4.733436-11.044684 4.733436zM742.137049 815.728814c-4.733436 0-7.88906-1.577812-11.044685-4.733436l-45.756548-45.756549c-6.311248-6.311248-6.311248-15.77812 0-22.089368s15.77812-6.311248 22.089368 0l45.756549 45.756548c6.311248 6.311248 6.311248 15.77812 0 22.089369-3.155624 3.155624-6.311248 4.733436-11.044684 4.733436zM298.771871 372.363636c-4.733436 0-7.88906-1.577812-11.044684-4.733436l-45.756548-45.756548c-6.311248-6.311248-6.311248-15.77812 0-22.089368s15.77812-6.311248 22.089368 0l45.756548 45.756548c6.311248 6.311248 6.311248 15.77812 0 22.089368-3.155624 3.155624-6.311248 4.733436-11.044684 4.733436z" fill="#381FCD" p-id="5588"></path><path d="M713.736432 613.768875H710.580808l-216.160246-42.600924c-4.733436-1.577812-9.466872-4.733436-11.044685-7.88906l-86.779661-171.98151c-3.155624-7.88906-1.577812-17.355932 6.311249-20.511557 7.88906-4.733436 17.355932-1.577812 20.511556 6.311248l83.624037 165.670262L715.314244 583.790447c7.88906 1.577812 14.200308 9.466872 12.622496 18.933744 0 6.311248-6.311248 11.044684-14.200308 11.044684z" fill="#381FCD" p-id="5589"></path><path d="M497.576186 981.399076c-235.093991 0-426.009245-190.915254-426.009245-426.009245s190.915254-426.009245 426.009245-426.009245 426.009245 190.915254 426.009245 426.009245-190.915254 426.009245-426.009245 426.009245z m0-820.46225c-217.738059 0-394.453005 176.714946-394.453005 394.453005s176.714946 394.453005 394.453005 394.453004 394.453005-176.714946 394.453004-394.453004-176.714946-394.453005-394.453004-394.453005z" fill="#381FCD" p-id="5590"></path></svg>