<?xml version="1.0" standalone="no"?><!DOCTYPE svg PUBLIC "-//W3C//DTD SVG 1.1//EN" "http://www.w3.org/Graphics/SVG/1.1/DTD/svg11.dtd"><svg t="1551755854994" class="icon" style="" viewBox="0 0 1024 1024" version="1.1" xmlns="http://www.w3.org/2000/svg" p-id="1546" xmlns:xlink="http://www.w3.org/1999/xlink" width="200" height="200"><defs><style type="text/css"></style></defs><path d="M710.359 623.61L928 424.99l-293.026-32.985L513 124 391.026 392.005 98 424.99l217.641 198.62L256.516 912 513 766.749 769.484 912 710.36 623.61z m-198.36 220.685L246.128 995.07c-21.853 12.393-49.618 4.73-62.016-17.114a45.462 45.462 0 0 1-5-31.558l61.29-299.358L14.797 440.866c-18.543-16.946-19.833-45.711-2.88-64.248a45.498 45.498 0 0 1 28.478-14.505l303.748-34.239L470.58 49.676c10.393-22.866 37.36-32.98 60.235-22.592a45.484 45.484 0 0 1 22.6 22.592l126.438 278.198 303.748 34.239c24.967 2.814 42.924 25.327 40.108 50.285a45.47 45.47 0 0 1-14.51 28.468L783.594 647.04l61.289 299.358c5.037 24.606-10.833 48.635-35.447 53.67a45.506 45.506 0 0 1-31.569-4.998L511.998 844.295z" fill="#2F54EB" p-id="1547"></path></svg>